<svg aria-hidden="true" style="position: absolute; width: 0; height: 0; overflow: hidden;" version="1.1" xmlns="http://www.w3.org/2000/svg" xmlns:xlink="http://www.w3.org/1999/xlink">
<defs>
<symbol id="icon-phone" viewBox="0 0 32 32">
<path d="M20.741 19.397l-0.607 0.64s-1.444 1.519-5.384-2.629c-3.94-4.148-2.496-5.667-2.496-5.667l0.383-0.404c0.941-0.992 1.031-2.584 0.208-3.747l-1.68-2.377c-1.019-1.44-2.985-1.629-4.152-0.401l-2.092 2.201c-0.577 0.609-0.964 1.397-0.917 2.273 0.12 2.24 1.077 7.057 6.416 12.68 5.663 5.96 10.976 6.197 13.148 5.983 0.688-0.067 1.285-0.439 1.767-0.945l1.893-1.995c1.28-1.347 0.92-3.653-0.717-4.595l-2.547-1.467c-1.075-0.617-2.383-0.436-3.223 0.448zM17.68 2.507c0.081-0.479 0.492-0.84 0.988-0.84 0.056 0 0.112 0.005 0.166 0.014l-0.006-0.001c0.033 0.007 0.143 0.027 0.2 0.040 0.113 0.024 0.272 0.064 0.469 0.12 0.396 0.116 0.949 0.307 1.613 0.611 1.328 0.609 3.095 1.675 4.929 3.508 1.835 1.835 2.9 3.603 3.509 4.931 0.304 0.664 0.493 1.216 0.609 1.613 0.046 0.146 0.098 0.349 0.142 0.555l0.009 0.050 0.007 0.041c0.009 0.050 0.014 0.108 0.014 0.167 0 0.498-0.358 0.913-0.83 1.002l-0.006 0.001c-0.048 0.008-0.104 0.013-0.16 0.013-0.494 0-0.905-0.359-0.986-0.83l-0.001-0.006c-0.032-0.173-0.070-0.32-0.115-0.463l0.007 0.027c-0.158-0.528-0.33-0.972-0.532-1.399l0.026 0.060c-0.52-1.133-1.456-2.699-3.107-4.349-1.649-1.651-3.216-2.585-4.349-3.105-0.367-0.176-0.81-0.349-1.267-0.488l-0.070-0.018c-0.087-0.027-0.229-0.064-0.373-0.097l-0.051-0.010c-0.484-0.082-0.847-0.498-0.847-0.998 0-0.053 0.004-0.105 0.012-0.155l-0.001 0.006z"></path>
<path d="M17.981 7.107c0.123-0.423 0.507-0.726 0.962-0.726 0.098 0 0.192 0.014 0.281 0.040l-0.007-0.002-0.275 0.961 0.275-0.96h0.004l0.004 0.001 0.011 0.003 0.027 0.008 0.075 0.027c0.060 0.021 0.139 0.051 0.236 0.093 0.195 0.083 0.46 0.211 0.787 0.404 0.652 0.387 1.543 1.027 2.589 2.075 1.047 1.047 1.688 1.937 2.075 2.589 0.193 0.327 0.321 0.592 0.404 0.787 0.035 0.075 0.075 0.178 0.112 0.283l0.008 0.028 0.007 0.027 0.004 0.011v0.004l0.001 0.001s0 0.003-0.96 0.277l0.96-0.275c0.022 0.078 0.034 0.167 0.034 0.259 0 0.552-0.448 1-1 1-0.444 0-0.82-0.289-0.951-0.689l-0.002-0.007-0.004-0.013c-0.107-0.262-0.218-0.483-0.346-0.694l0.012 0.022c-0.299-0.503-0.836-1.263-1.769-2.196s-1.692-1.469-2.195-1.767c-0.189-0.115-0.41-0.227-0.64-0.321l-0.032-0.012-0.013-0.005c-0.415-0.128-0.712-0.508-0.712-0.958 0-0.098 0.014-0.193 0.041-0.283l-0.002 0.007z"></path>
</symbol>
<symbol id="icon-insta" viewBox="0 0 32 32">
<path d="M24 10c0 1.105-0.895 2-2 2s-2-0.895-2-2c0-1.105 0.895-2 2-2s2 0.895 2 2z"></path>
</symbol>
<symbol id="icon-insta-1" viewBox="0 0 32 32">
<path d="M4 14.667v2.667c0 5.028 0 7.543 1.563 9.104 1.561 1.563 4.076 1.563 9.104 1.563h2.667c5.028 0 7.543 0 9.104-1.563 1.563-1.561 1.563-4.076 1.563-9.104v-2.667c0-5.028 0-7.543-1.563-9.104-1.561-1.563-4.076-1.563-9.104-1.563h-2.667c-5.028 0-7.543 0-9.104 1.563-1.563 1.561-1.563 4.076-1.563 9.104zM24 10c0 1.105-0.895 2-2 2s-2-0.895-2-2v0c0-1.105 0.895-2 2-2s2 0.895 2 2v0zM18.667 17.333c0 1.473-1.194 2.667-2.667 2.667s-2.667-1.194-2.667-2.667v0c0-1.473 1.194-2.667 2.667-2.667s2.667 1.194 2.667 2.667v0zM21.333 17.333c0 2.946-2.388 5.333-5.333 5.333s-5.333-2.388-5.333-5.333v0c0-2.946 2.388-5.333 5.333-5.333s5.333 2.388 5.333 5.333v0z"></path>
</symbol>
<symbol id="icon-facebook" viewBox="0 0 32 32">
<path d="M16 2.72c-7.333 0-13.333 5.987-13.333 13.36 0 6.667 4.88 12.2 11.253 13.2v-9.333h-3.387v-3.867h3.387v-2.947c0-3.347 1.987-5.187 5.040-5.187 1.453 0 2.973 0.253 2.973 0.253v3.293h-1.68c-1.653 0-2.173 1.027-2.173 2.080v2.507h3.707l-0.6 3.867h-3.107v9.333c6.415-1.041 11.253-6.541 11.253-13.17 0-0.011 0-0.021-0-0.032v0.002c0-7.373-6-13.36-13.333-13.36z"></path>
</symbol>
<symbol id="icon-burger" viewBox="0 0 43 32">
<path d="M0.592 3.556c0-1.146 0.929-2.075 2.075-2.075v0h37.333c1.146 0 2.075 0.929 2.075 2.075s-0.929 2.075-2.075 2.075h-37.333c-1.146 0-2.075-0.929-2.075-2.075v0zM0.592 16.066c0.001-1.145 0.929-2.073 2.075-2.073 0 0 0 0 0 0h37.333c1.119 0.034 2.014 0.949 2.014 2.074s-0.895 2.040-2.011 2.074l-0.003 0h-37.333c-1.146 0-2.075-0.929-2.075-2.075v0zM2.667 26.503c-1.119 0.034-2.014 0.949-2.014 2.074s0.895 2.040 2.011 2.074l0.003 0h37.333c0.018 0.001 0.039 0.001 0.061 0.001 1.146 0 2.075-0.929 2.075-2.075s-0.929-2.075-2.075-2.075c-0.021 0-0.043 0-0.064 0.001l0.003-0h-37.333z"></path>
</symbol>
<symbol id="icon-booksy" viewBox="0 0 143 32">
<path d="M129.354 7.381c0.43-0.002 0.861-0.004 1.291 0 1.158 0.010 1.254 0.146 0.833 1.182-0.693 1.704-1.385 3.409-2.084 5.111-1.57 3.83-3.144 7.658-4.716 11.487-0.363 0.884-0.777 1.741-1.326 2.529-1.113 1.596-2.598 2.45-4.603 2.428-1.146-0.013-2.232-0.195-3.288-0.612-0.672-0.265-0.974-0.439-0.559-1.234 0.167-0.32 0.274-0.669 0.425-0.997 0.402-0.873 0.444-0.878 1.334-0.56 0.403 0.144 0.816 0.286 1.236 0.347 1.311 0.189 2.311-0.269 3.015-1.421 0.461-0.756 0.598-1.402 0.182-2.282-2.249-4.753-4.422-9.542-6.62-14.319-0.137-0.298-0.277-0.597-0.39-0.904-0.167-0.456-0.034-0.693 0.449-0.736 0.427-0.038 0.86-0.008 1.291-0.008 1.958 0.006 1.539-0.196 2.289 1.492 1.503 3.382 2.977 6.776 4.473 10.16l0.311 0.632c0 0 0.098 0.203 0.221 0.203s0.303 0.021 0.442-0.227c0.054-0.096 0.114-0.238 0.168-0.377 0.014-0.056 0.029-0.109 0.047-0.157 1.421-3.605 2.812-7.222 4.22-10.832 0.352-0.903 0.365-0.898 1.361-0.903zM105.195 14.077c1.184 0.411 2.413 0.685 3.574 1.17 0.924 0.386 1.784 0.858 2.489 1.578 1.708 1.745 1.396 5.006-0.428 6.677-1.136 1.041-2.497 1.565-4.034 1.665-2.487 0.162-4.787-0.426-6.91-1.708-1.494-0.902-1.522-0.99-0.517-2.343 0.68-0.916 0.592-1.328 1.997-0.377 1.6 1.083 3.388 1.605 5.351 1.437 0.719-0.062 1.36-0.276 1.863-0.803 0.83-0.869 0.715-2.019-0.265-2.718-0.684-0.488-1.49-0.7-2.273-0.954-0.721-0.234-1.459-0.417-2.184-0.638-0.761-0.232-1.482-0.561-2.177-0.946-2.95-1.633-2.791-5.204-1.017-7.094 1.088-1.159 2.451-1.749 4.034-1.852 0.329-0.021 0.661-0.003 0.992-0.003 2.046-0.074 3.903 0.562 5.659 1.539 0.725 0.403 0.766 0.611 0.35 1.337-0.229 0.399-0.481 0.785-0.719 1.179-0.23 0.38-0.549 0.444-0.933 0.263-0.209-0.099-0.413-0.21-0.614-0.323-1.14-0.64-2.376-1.004-3.669-1.109-0.755-0.061-1.519 0.085-2.187 0.497-1.136 0.701-1.168 1.966-0.083 2.736 0.519 0.368 1.107 0.581 1.701 0.787zM89.616 14.528c-0.456 0.478-0.462 0.517-0.037 1.073 2.036 2.672 4.081 5.337 6.117 8.009 0.228 0.299 0.658 0.563 0.449 1.007-0.204 0.434-0.673 0.333-1.064 0.336-0.53 0.005-1.061-0.027-1.589 0.009-0.588 0.040-0.991-0.171-1.348-0.642-1.412-1.864-2.854-3.705-4.29-5.55-1.159-1.49-0.986-1.404-1.893-0.571-0.606 0.598-1.367 1.375-1.65 1.774-0.116 0.209-0.212 0.424-0.284 0.649-0.159 0.618-0.105 1.265-0.105 1.265v0.826c0.032 0.349 0.017 0.706 0 1.062-0.005 0.109-0.011 0.219-0.015 0.328-0.026 0.627-0.214 0.822-0.836 0.846-0.595 0.023-1.192 0.024-1.787-0.001-0.666-0.028-0.776-0.144-0.781-0.852-0.012-1.675-0.005-3.351-0.005-5.026-0-2.135-0-4.271-0-6.406 0-3.581 0-7.161 0-10.742 0-0.263 0.008-0.526 0.003-0.788-0.008-0.409 0.217-0.62 0.599-0.632 0.694-0.022 1.391-0.034 2.085-0.004 0.492 0.021 0.677 0.244 0.721 0.756 0.019 0.229 0.006 0.46 0.006 0.69 0 4.238-0.005 8.476 0.010 12.713v0.807c0.039 0.065 0.102 0.118 0.201 0.152 0.305 0.102 0.526-0.331 0.748-0.56 2.291-2.369 4.58-4.74 6.851-7.128 0.37-0.389 0.748-0.587 1.296-0.556 0.726 0.041 1.456 0.014 2.184 0.011 0.31-0.001 0.615 0.023 0.756 0.348 0.14 0.322-0.152 0.475-0.324 0.651-1.268 1.296-2.548 2.581-3.819 3.874-0.739 0.752-1.472 1.511-2.2 2.274zM58.854 16.144c0.010-4.868 3.644-9.11 9.201-9.114 5.795-0.004 9.324 4.677 9.121 9.147 0.124 4.311-3.116 9.097-9.181 9.115-5.56 0.016-9.15-4.199-9.14-9.147zM73.767 16.245c0.157-2.887-2.265-6.4-6.177-6.093-1.984 0.156-3.454 1.065-4.434 2.726-0.885 1.502-1.115 3.134-0.675 4.842 0.998 3.877 5.051 5.515 8.242 3.799 2.086-1.122 2.954-2.993 3.044-5.275zM37.551 16.158c0.003-4.56 3.455-9.136 9.19-9.131 5.701 0.004 9.231 4.465 9.158 9.135 0.025 4.794-3.545 9.166-9.285 9.129-5.692-0.036-9.066-4.505-9.063-9.132zM50.95 20.327c1.823-2.076 2.051-5.195 0.562-7.521-1.108-1.732-2.681-2.675-5.081-2.657-1.174-0.066-2.416 0.433-3.504 1.4-2.386 2.122-2.637 6.155-0.462 8.661 2.428 2.798 6.413 2.476 8.485 0.117zM21.749 7.788c1.346-0.792 2.841-1.213 4.354-1.151 3.215 0.133 5.752 1.587 7.431 4.368 0.996 1.65 1.343 3.45 1.318 5.371-0.028 2.157-0.645 4.077-2.038 5.722-1.75 2.067-4.012 3.065-6.732 3.294-4.012 0.337-7.269-1.296-10.329-3.571-1.51-1.123-3.032-2.227-4.624-3.235-0.703-0.445-1.45-0.783-2.255-0.996-1.809-0.477-3.55 0.212-4.527 1.794-0.087 0.14-0.179 0.279-0.244 0.429-0.196 0.45-0.53 0.628-1.022 0.612-0.728-0.023-1.457 0.010-2.185-0.010-0.867-0.024-1.081-0.332-0.744-1.118 1.142-2.664 3.154-4.345 5.985-4.992 2.625-0.601 5.054-0.072 7.229 1.515 1.279 0.933 2.52 1.92 3.814 2.832 1.756 1.238 3.561 2.435 5.658 3.013 2.211 0.609 4.386 0.532 6.346-0.872 1.152-0.825 1.912-1.914 2.13-3.313 0.291-1.873 0.093-3.66-1.092-5.245-2.233-2.987-6.591-2.842-8.625 0.318-0.579 0.9-0.942 1.875-0.883 2.973 0.024 0.459 0.031 0.923-0.014 1.379-0.054 0.535-0.364 0.738-0.811 0.506-0.821-0.426-1.584-0.953-2.315-1.518-0.364-0.281-0.298-0.703-0.298-1.095-0-2.267 0-4.534 0.003-6.8 0-2.267-0.004-4.534 0.002-6.801 0.003-1.038 0.067-1.093 1.146-1.104 0.331-0.004 0.662-0.004 0.993 0 1.128 0.012 1.295 0.18 1.299 1.338 0.005 1.511 0.001 3.022 0.001 4.534 0 0.394-0.001 0.788 0 1.183 0.003 1.225 0.012 1.241 1.031 0.642z"></path>
</symbol>
<symbol id="icon-arrowdown" viewBox="0 0 32 32">
<path d="M16 19.447l-9.724-9.724-1.885 1.885 11.609 11.609 11.609-11.609-1.885-1.885z"></path>
</symbol>
<symbol id="icon-modal-close-btn" viewBox="0 0 32 32">
<path d="M19.141 16.123l10.676-10.668c0.36-0.42 0.548-0.96 0.527-1.513s-0.251-1.077-0.642-1.467c-0.391-0.391-0.915-0.62-1.469-0.641s-1.093 0.167-1.514 0.526l-10.676 10.558-10.742-10.734c-0.42-0.36-0.961-0.548-1.514-0.526s-1.077 0.25-1.469 0.641c-0.391 0.391-0.62 0.915-0.642 1.467s0.167 1.093 0.527 1.513l10.72 10.844-10.501 10.361c-0.23 0.197-0.417 0.439-0.549 0.711s-0.206 0.569-0.218 0.871 0.039 0.604 0.15 0.885c0.11 0.282 0.278 0.538 0.492 0.751s0.47 0.381 0.752 0.492c0.282 0.11 0.584 0.161 0.886 0.15s0.599-0.086 0.872-0.217c0.273-0.132 0.515-0.318 0.712-0.548l10.479-10.471 10.413 10.405c0.42 0.359 0.961 0.547 1.514 0.526s1.077-0.25 1.469-0.641c0.391-0.391 0.621-0.915 0.642-1.467s-0.167-1.093-0.527-1.512l-10.369-10.295z"></path>
</symbol>
</defs>
</svg>
