<?xml version="1.0" standalone="no"?>
<!DOCTYPE svg PUBLIC "-//W3C//DTD SVG 20010904//EN"
 "http://www.w3.org/TR/2001/REC-SVG-20010904/DTD/svg10.dtd">
<svg version="1.0" xmlns="http://www.w3.org/2000/svg"
 width="712.000000pt" height="712.000000pt" viewBox="0 0 712.000000 712.000000"
 preserveAspectRatio="xMidYMid meet">

<g transform="translate(0.000000,712.000000) scale(0.100000,-0.100000)"
fill="#000000" stroke="none">
<path d="M3180 7111 c0 -4 -31 -11 -69 -15 -112 -10 -296 -44 -448 -81 -138
-34 -397 -118 -418 -135 -5 -4 -76 -37 -156 -73 -259 -116 -486 -250 -678
-400 -272 -213 -449 -386 -648 -635 -215 -268 -322 -450 -504 -860 -114 -257
-195 -562 -231 -864 -7 -60 -16 -108 -20 -108 -4 0 -8 -174 -8 -386 0 -214 4
-383 9 -380 4 3 11 -29 15 -72 23 -256 131 -674 227 -880 22 -45 39 -85 39
-88 0 -22 206 -410 262 -494 184 -274 281 -393 493 -606 272 -273 585 -500
900 -654 411 -201 766 -310 1178 -365 165 -21 709 -21 874 0 396 52 754 161
1145 348 166 79 252 129 398 231 404 281 680 549 921 892 150 212 190 280 284
468 193 391 306 758 361 1176 21 164 15 793 -9 935 -71 422 -165 717 -347
1090 -100 205 -272 472 -420 655 -111 136 -374 402 -480 485 -41 33 -115 91
-165 130 -134 106 -268 189 -480 295 -262 132 -361 176 -495 222 -204 69 -515
137 -702 155 -37 3 -65 10 -62 14 3 5 -168 9 -380 9 -212 0 -386 -4 -386 -9z
m626 -277 l71 -5 38 -102 c67 -179 125 -359 156 -480 45 -178 108 -567 121
-758 l12 -169 136 0 136 0 32 73 c46 103 132 235 142 217 4 -8 13 -67 20 -130
18 -180 -3 -160 176 -160 l154 0 0 79 c0 63 -6 98 -31 168 -40 113 -164 401
-349 813 -81 179 -145 327 -144 329 6 7 150 -41 289 -96 1012 -400 1762 -1277
2000 -2339 103 -458 103 -970 0 -1428 -216 -962 -854 -1779 -1735 -2221 -107
-54 -351 -157 -357 -152 -1 2 2 45 8 96 21 192 83 341 234 567 l85 128 0 268
0 268 -183 0 -184 0 -70 -147 c-184 -381 -252 -700 -253 -1175 l0 -116 -52
-12 c-104 -22 -275 -49 -385 -59 -106 -11 -471 -17 -479 -8 -8 8 -43 185 -66
327 -20 130 -22 181 -22 495 0 338 6 441 40 655 l7 40 -495 0 -495 0 -6 -68
c-13 -128 -7 -288 13 -409 40 -233 120 -573 190 -797 16 -55 29 -100 28 -102
-4 -3 -251 86 -260 94 -8 8 -143 531 -192 748 l-35 149 0 -398 -1 -397 -62 31
c-265 134 -563 353 -798 589 -927 927 -1214 2307 -733 3525 267 676 744 1237
1373 1615 101 61 359 190 447 224 l42 16 40 -124 c92 -287 141 -606 158 -1013
l6 -163 277 0 278 0 6 33 c42 235 45 488 6 670 -25 119 -89 341 -165 576 -42
130 -54 176 -44 181 13 9 181 36 279 45 l65 7 64 -124 c35 -67 99 -186 142
-263 171 -307 233 -545 246 -937 l6 -188 104 0 104 0 -5 33 c-3 17 -17 136
-31 262 -56 503 -79 585 -314 1103 -28 63 -49 117 -47 120 4 8 148 5 262 -4z"/>
<path d="M2100 5737 l0 -417 52 0 51 0 -7 118 c-10 185 -76 694 -92 711 -2 2
-4 -183 -4 -412z"/>
<path d="M560 4235 c0 -118 1 -125 20 -125 27 0 63 73 62 126 0 54 -36 124
-62 124 -19 0 -20 -7 -20 -125z"/>
<path d="M666 4310 c13 -28 29 -84 35 -125 11 -73 12 -75 39 -75 27 0 28 2 23
40 -4 31 -2 40 9 40 8 0 32 -18 53 -40 25 -26 48 -40 64 -40 22 0 8 17 -99
125 -69 68 -130 124 -137 125 -7 0 -2 -20 13 -50z"/>
<path d="M789 4331 c36 -50 165 -165 219 -194 44 -24 61 -28 114 -25 l63 3
-58 27 c-32 15 -75 40 -95 56 -21 15 -71 49 -112 74 -41 26 -85 56 -97 67 -12
12 -29 21 -38 21 -14 0 -13 -4 4 -29z"/>
<path d="M1002 4278 c67 -44 137 -87 155 -95 18 -7 68 -13 111 -13 68 0 98 -7
228 -51 82 -28 173 -62 202 -75 l52 -23 46 40 c29 25 41 41 32 44 -7 2 -25 9
-40 14 -16 6 -86 15 -157 21 -141 11 -203 26 -250 59 -25 18 -38 21 -80 15
-57 -7 -74 1 -187 91 l-69 55 -83 0 -84 0 124 -82z"/>
<path d="M1373 4349 c11 -6 71 -12 135 -13 123 -2 185 -17 163 -39 -7 -7 -61
-14 -136 -17 -69 -4 -127 -9 -131 -12 -22 -22 46 -37 271 -58 61 -6 125 -13
143 -16 31 -6 32 -5 32 29 0 41 -20 59 -121 107 -63 29 -67 30 -219 30 -115
-1 -150 -3 -137 -11z"/>
<path d="M1824 4345 c25 -19 36 -19 36 0 0 10 -10 15 -27 15 -27 -1 -27 -1 -9
-15z"/>
<path d="M2030 3985 c0 -52 3 -95 8 -95 4 0 230 0 502 0 l495 -1 3 96 3 95
-506 0 -505 0 0 -95z"/>
<path d="M3200 3585 l0 -495 384 0 c422 0 449 3 519 61 94 77 122 281 55 400
l-20 35 22 41 c30 58 42 145 29 221 -17 109 -61 171 -149 211 -43 20 -64 21
-442 21 l-398 0 0 -495z m770 268 c30 -38 28 -106 -5 -138 l-24 -25 -261 0
c-143 0 -263 0 -267 0 -8 0 -17 166 -10 184 3 8 88 10 275 8 l271 -3 21 -26z
m-6 -392 c36 -34 37 -111 1 -146 l-24 -25 -271 0 -270 0 0 100 0 101 269 -3
269 -3 26 -24z"/>
<path d="M4360 3585 l0 -495 100 0 100 0 0 150 0 150 103 0 102 0 150 -150
150 -150 145 0 145 0 -150 150 -150 150 36 0 c111 0 214 72 243 171 22 71 22
276 1 347 -20 66 -66 119 -130 148 -50 24 -52 24 -447 24 l-398 0 0 -495z
m766 272 c22 -25 24 -37 24 -123 0 -87 -2 -97 -25 -119 l-24 -25 -271 0 -270
0 0 143 c0 79 3 147 7 151 4 4 126 6 271 4 l264 -3 24 -28z"/>
<path d="M5665 4056 c-28 -12 -65 -39 -82 -59 -59 -68 -63 -98 -63 -524 l0
-383 100 0 100 0 0 100 0 100 295 0 295 0 0 -100 0 -100 105 0 106 0 -3 383
c-3 333 -6 389 -21 435 -23 67 -69 119 -132 148 -49 23 -57 24 -350 24 -293 0
-301 -1 -350 -24z m621 -199 c23 -27 24 -33 24 -198 l0 -169 -295 0 -295 0 0
168 c0 186 5 204 63 221 18 6 133 9 255 8 l224 -2 24 -28z"/>
<path d="M1375 4029 c-4 -6 -5 -12 -4 -13 5 -4 268 -66 280 -66 19 0 8 20 -18
34 -23 11 -216 56 -244 56 -4 0 -11 -5 -14 -11z"/>
<path d="M930 3654 c-195 -167 -358 -304 -362 -304 -5 0 -8 -58 -8 -130 l0
-130 645 0 645 0 0 125 0 125 -440 0 c-244 0 -440 4 -440 9 0 5 39 42 88 83
48 41 167 142 264 225 l177 152 -96 75 c-53 42 -101 76 -107 75 -6 0 -171
-137 -366 -305z"/>
<path d="M2037 3683 c-4 -3 -7 -138 -7 -300 l0 -293 505 0 505 0 0 100 0 100
-400 0 -400 0 0 100 0 100 300 0 301 0 -3 98 -3 97 -396 3 c-217 1 -398 -1
-402 -5z"/>
<path d="M3874 1703 c-162 -347 -264 -642 -264 -769 0 -123 77 -172 149 -96
41 43 74 108 281 549 81 171 161 334 178 362 l32 51 -165 0 -165 0 -46 -97z"/>
</g>
</svg>
